<svg width="102" height="102" viewBox="0 0 102 102" fill="none" xmlns="http://www.w3.org/2000/svg">
<path d="M50.9978 1L54.2873 4.97594L58.1116 1.50814L60.8039 5.91198L65.0829 3.02363L67.1199 7.76621L71.7644 5.51973L73.1105 10.503L78.027 8.93849L78.6465 14.06L83.7368 13.2131L83.6209 18.3702L88.7825 18.2587L87.9311 23.349L93.057 23.9686L91.4925 28.885L96.4758 30.2267L94.2293 34.8756L98.9674 36.9126L96.0836 41.1917L100.487 43.8839L97.0196 47.7038L100.996 50.9978L97.0196 54.2873L100.487 58.1117L96.0836 60.8083L98.9674 65.0829L94.2293 67.1199L96.4758 71.7689L91.4925 73.1105L93.057 78.0314L87.9311 78.651L88.7825 83.7412L83.6209 83.6254L83.7368 88.7869L78.6465 87.9356L78.027 93.057L73.1105 91.4925L71.7644 96.4803L67.1199 94.2293L65.0829 98.9719L60.8039 96.0836L58.1116 100.487L54.2873 97.0196L50.9978 101L47.7038 97.0196L43.8794 100.487L41.1872 96.0836L36.9082 98.9719L34.8712 94.2293L30.2266 96.4803L28.885 91.4925L23.9641 93.057L23.3445 87.9356L18.2543 88.7869L18.3702 83.6254L13.2131 83.7412L14.0599 78.651L8.93403 78.0314L10.503 73.1105L5.51972 71.7689L7.76621 67.1199L3.02361 65.0829L5.91196 60.8083L1.50813 58.1117L4.97592 54.2873L1 50.9978L4.97592 47.7038L1.50813 43.8839L5.91196 41.1917L3.02361 36.9126L7.76621 34.8756L5.51972 30.2267L10.503 28.885L8.93403 23.9686L14.0599 23.349L13.2131 18.2587L18.3702 18.3702L18.2543 13.2131L23.3445 14.06L23.9641 8.93849L28.885 10.503L30.2266 5.51973L34.8712 7.76621L36.9082 3.02363L41.1872 5.91198L43.8794 1.50814L47.7038 4.97594L50.9978 1Z" fill="url(#paint0_linear_1983_15588)" stroke="#FFF200" stroke-width="0.891464" stroke-miterlimit="10"/>
<path d="M52.9742 91.5768C75.3914 90.4922 92.6849 71.4402 91.6002 49.023C90.5156 26.6058 71.4636 9.31235 49.0464 10.397C26.6293 11.4816 9.3358 30.5336 10.4204 52.9508C11.505 75.3679 30.557 92.6614 52.9742 91.5768Z" stroke="#FFF200" stroke-width="1.1589" stroke-miterlimit="10"/>
<path d="M50.9976 89.9283C72.4982 89.9283 89.9278 72.4987 89.9278 50.9981C89.9278 29.4975 72.4982 12.0679 50.9976 12.0679C29.497 12.0679 12.0674 29.4975 12.0674 50.9981C12.0674 72.4987 29.497 89.9283 50.9976 89.9283Z" stroke="white" stroke-width="0.3655" stroke-miterlimit="10"/>
<path d="M37.2203 50.7613H34.4879V38.4992H31.1851V36.3062H31.5015C32.286 36.3062 32.9858 36.0789 33.6009 35.6242C34.216 35.1696 34.5236 34.5589 34.5236 33.7967V33.6675H37.2247V50.7613H37.2203Z" fill="white"/>
<path d="M49.9279 47.0758C49.9279 48.2837 49.5089 49.2376 48.6709 49.9374C47.833 50.6372 46.8033 50.9849 45.5731 50.9849C44.3429 50.9849 43.3222 50.6372 42.5065 49.9374C41.6908 49.2376 41.2852 48.2837 41.2852 47.0758V37.3232C41.2852 36.1153 41.6997 35.1525 42.5243 34.4304C43.3266 33.7752 44.3473 33.4453 45.5731 33.4453C46.7989 33.4453 47.8196 33.7752 48.6219 34.4304C49.4911 35.1525 49.9234 36.1153 49.9234 37.3232V47.0758H49.9279ZM47.1644 46.9153V37.448C47.1644 36.3871 46.6339 35.8612 45.5776 35.8612C44.5212 35.8612 44.022 36.3916 44.022 37.448V46.9153C44.022 48.0163 44.539 48.569 45.5776 48.569C46.6161 48.569 47.1644 48.0163 47.1644 46.9153Z" fill="white"/>
<path d="M60.4172 47.0758C60.4172 48.2837 59.9982 49.2376 59.1602 49.9374C58.3222 50.6372 57.2926 50.9849 56.0624 50.9849C54.8321 50.9849 53.8114 50.6372 52.9957 49.9374C52.18 49.2376 51.7744 48.2837 51.7744 47.0758V37.3232C51.7744 36.1153 52.1889 35.1525 53.0135 34.4304C53.8203 33.7752 54.8366 33.4453 56.0624 33.4453C57.2881 33.4453 58.3089 33.7752 59.1112 34.4304C59.9804 35.1525 60.4127 36.1153 60.4127 37.3232V47.0758H60.4172ZM57.6536 46.9153V37.448C57.6536 36.3871 57.1232 35.8612 56.0668 35.8612C55.0104 35.8612 54.5112 36.3916 54.5112 37.448V46.9153C54.5112 48.0163 55.0283 48.569 56.0668 48.569C57.1054 48.569 57.6536 48.0163 57.6536 46.9153Z" fill="white"/>
<path d="M67.7534 39.2887C67.7534 41.3658 66.8619 42.3999 65.0835 42.3999C63.305 42.3999 62.3823 41.3525 62.3823 39.2531V36.1731C62.3823 34.2653 63.305 33.3159 65.1459 33.3159C65.9705 33.3159 66.6123 33.5878 67.067 34.1272C67.5216 34.6665 67.7489 35.3707 67.7489 36.2399V39.2887H67.7534ZM73.5657 33.6636L65.6852 50.7574H63.5903L71.4396 33.6636H73.5702H73.5657ZM65.8145 39.7345V35.8254C65.8145 35.2326 65.5693 34.9339 65.0835 34.9339C64.5308 34.9339 64.2589 35.2326 64.2589 35.8254V39.7345C64.2589 40.4343 64.5352 40.7819 65.0835 40.7819C65.5693 40.7819 65.8145 40.4343 65.8145 39.7345ZM74.7425 48.0251C74.7425 50.0799 73.851 51.1051 72.0725 51.1051C70.2941 51.1051 69.4026 50.0576 69.4026 47.9582V44.9094C69.4026 43.0017 70.3119 42.0478 72.1349 42.0478C72.9818 42.0478 73.6281 42.3197 74.0739 42.859C74.5196 43.3984 74.7425 44.0937 74.7425 44.9406V48.0206V48.0251ZM72.8659 48.4396V44.5305C72.8659 43.9377 72.603 43.6391 72.0725 43.6391C71.5421 43.6391 71.3103 43.9377 71.3103 44.5305V48.4396C71.3103 49.1617 71.5644 49.5183 72.0725 49.5183C72.5807 49.5183 72.8659 49.1572 72.8659 48.4396Z" fill="white"/>
<path d="M26.5707 59.612C27.4325 59.612 28.2123 59.8145 28.9104 60.2196C29.617 60.616 30.1728 61.1718 30.5778 61.887C30.9829 62.5937 31.1854 63.3951 31.1854 64.2913C31.1854 65.1875 30.9785 65.9933 30.5649 66.7085C30.1599 67.4238 29.6041 67.9839 28.8974 68.3889C28.1994 68.7853 27.4238 68.9836 26.5707 68.9836C25.7176 68.9836 24.9377 68.7853 24.2311 68.3889C23.533 67.9839 22.9772 67.4238 22.5636 66.7085C22.1586 65.9933 21.956 65.1875 21.956 64.2913C21.956 63.3951 22.1586 62.5937 22.5636 61.887C22.9772 61.1718 23.533 60.616 24.2311 60.2196C24.9377 59.8145 25.7176 59.612 26.5707 59.612ZM26.5707 61.6673C25.8468 61.6673 25.2695 61.9043 24.8386 62.3782C24.4163 62.8436 24.2052 63.4813 24.2052 64.2913C24.2052 65.0928 24.4163 65.7304 24.8386 66.2044C25.2695 66.6784 25.8468 66.9154 26.5707 66.9154C27.286 66.9154 27.859 66.6784 28.2899 66.2044C28.7208 65.7304 28.9362 65.0928 28.9362 64.2913C28.9362 63.4899 28.7208 62.8522 28.2899 62.3782C27.8676 61.9043 27.2946 61.6673 26.5707 61.6673ZM37.1193 68.8931L35.1416 65.4418H34.6375V68.8931H32.4271V59.7542H36.2016C36.9254 59.7542 37.5373 59.8792 38.0371 60.1291C38.5369 60.379 38.9118 60.7237 39.1617 61.1632C39.4116 61.5941 39.5365 62.0896 39.5365 62.6497C39.5365 63.3132 39.3512 63.8777 38.9807 64.343C38.6188 64.8084 38.0888 65.1272 37.3908 65.2996L39.5624 68.8931H37.1193ZM34.6375 63.9294H36.0077C36.4472 63.9294 36.7703 63.8346 36.9771 63.645C37.1839 63.4468 37.2874 63.1581 37.2874 62.779C37.2874 62.417 37.1796 62.1326 36.9642 61.9258C36.7574 61.719 36.4385 61.6156 36.0077 61.6156H34.6375V63.9294ZM42.8552 59.7542V68.8931H40.6448V59.7542H42.8552ZM48.6599 59.6637C49.806 59.6637 50.7497 59.9438 51.4908 60.5039C52.2319 61.0641 52.6929 61.8224 52.8739 62.779H50.5342C50.3791 62.4515 50.1421 62.193 49.8233 62.0034C49.5044 61.8052 49.121 61.7061 48.6728 61.7061C47.9748 61.7061 47.4147 61.9431 46.9924 62.417C46.5702 62.8824 46.359 63.5158 46.359 64.3172C46.359 65.1875 46.5788 65.8554 47.0183 66.3207C47.4664 66.7861 48.0998 67.0188 48.9184 67.0188C49.4441 67.0188 49.9051 66.8766 50.3015 66.5922C50.698 66.2992 50.978 65.8856 51.1418 65.3513H48.3497V63.7614H52.9902V65.9459C52.8179 66.4802 52.5421 66.9757 52.1629 67.4324C51.7838 67.8891 51.2969 68.2597 50.7023 68.5441C50.1163 68.8284 49.4441 68.9706 48.6858 68.9706C47.7637 68.9706 46.958 68.7767 46.2686 68.3889C45.5792 67.9925 45.0449 67.441 44.6657 66.7344C44.2952 66.0278 44.1099 65.222 44.1099 64.3172C44.1099 63.4123 44.2952 62.6066 44.6657 61.9C45.0449 61.1933 45.5749 60.6461 46.2556 60.2583C46.945 59.8619 47.7465 59.6637 48.6599 59.6637ZM56.4379 59.7542V68.8931H54.2275V59.7542H56.4379ZM66.0816 68.8931H63.8713L60.1744 63.2831V68.8931H57.964V59.7542H60.1744L63.8713 65.4159V59.7542H66.0816V68.8931ZM73.2698 67.2256H69.8444L69.2756 68.8931H66.9489L70.2968 59.8189H72.8433L76.1912 68.8931H73.8386L73.2698 67.2256ZM72.7011 65.5452L71.5636 62.1844L70.4131 65.5452H72.7011ZM79.2607 67.1997H82.2079V68.8931H77.0504V59.7542H79.2607V67.1997Z" fill="white"/>
<path d="M80.872 52.2378H21.4648V52.6746H80.872V52.2378Z" fill="white"/>
<path d="M85.3604 52.4557C85.3604 53.151 84.7987 53.7127 84.1034 53.7127C83.408 53.7127 82.8464 53.151 82.8464 52.4557C82.8464 51.7604 83.408 51.1987 84.1034 51.1987C84.7987 51.1987 85.3604 51.7604 85.3604 52.4557Z" fill="white"/>
<path d="M20.4744 52.4557C20.4744 53.151 19.9128 53.7127 19.2174 53.7127C18.5221 53.7127 17.9604 53.151 17.9604 52.4557C17.9604 51.7604 18.5221 51.1987 19.2174 51.1987C19.9128 51.1987 20.4744 51.7604 20.4744 52.4557Z" fill="white"/>
<path d="M51.1706 78.6294L52.5747 81.4776L55.7215 81.9367L53.4438 84.1565L53.9787 87.29L51.1706 85.8101L48.3536 87.29L48.8929 84.1565L46.6152 81.9367L49.7621 81.4776L51.1706 78.6294Z" fill="#FFF200"/>
<path d="M41.8363 78.6294L42.6475 80.2741L44.4617 80.5371L43.1468 81.8164L43.4588 83.6216L41.8363 82.7702L40.2138 83.6216L40.5259 81.8164L39.2109 80.5371L41.0251 80.2741L41.8363 78.6294Z" fill="#FFF200"/>
<path d="M60.5004 78.6294L61.3116 80.2741L63.1213 80.5371L61.8153 81.8164L62.1184 83.6216L60.5004 82.7702L58.8779 83.6216L59.1899 81.8164L57.875 80.5371L59.6891 80.2741L60.5004 78.6294Z" fill="#FFF200"/>
<path d="M51.1706 15.103L52.5747 17.9557L55.7215 18.4104L53.4438 20.6301L53.9787 23.7636L51.1706 22.2838L48.3536 23.7636L48.8929 20.6301L46.6152 18.4104L49.7621 17.9557L51.1706 15.103Z" fill="#FFF200"/>
<path d="M41.8363 18.7725L42.6475 20.4172L44.4617 20.6802L43.1468 21.9595L43.4588 23.7647L41.8363 22.9133L40.2138 23.7647L40.5259 21.9595L39.2109 20.6802L41.0251 20.4172L41.8363 18.7725Z" fill="#FFF200"/>
<path d="M60.5004 18.7725L61.3116 20.4172L63.1213 20.6802L61.8153 21.9595L62.1184 23.7647L60.5004 22.9133L58.8779 23.7647L59.1899 21.9595L57.875 20.6802L59.6891 20.4172L60.5004 18.7725Z" fill="#FFF200"/>
<defs>
<linearGradient id="paint0_linear_1983_15588" x1="1" y1="50.9978" x2="100.996" y2="50.9978" gradientUnits="userSpaceOnUse">
<stop stop-color="#48AFFF"/>
<stop offset="1" stop-color="#2476A3"/>
</linearGradient>
</defs>
</svg>
